<svg xmlns="http://www.w3.org/2000/svg" width="960" height="540" fill="none" viewBox="0 0 960 540">
  <g clip-path="url(#clip0_87_5)">
    <path fill="#000" d="M960 0H0v540h960V0z"/>
    <g filter="url(#filter0_d_87_5)">
      <path fill="#BD85F8" d="M0 400l22.8-.7c22.9-.6 68.5-2 114.2-14.3s91.3-35.7 137-42.2 91.3 3.9 137.2 3.9c45.8 0 91.8-10.4 137.6-6.7 45.9 3.7 91.5 21.3 137.2 23 45.7 1.7 91.3-12.7 137-16.5 45.7-3.8 91.3 2.8 114.2 6.2L960 356v185H0V400z"/>
    </g>
    <path fill="#BC7CEE" d="M0 411l22.8.8c22.9.9 68.5 2.5 114.2.2s91.3-8.7 137-9.2 91.3 4.9 137.2 8.5c45.8 3.7 91.8 5.7 137.6-2.1 45.9-7.9 91.5-25.5 137.2-26.2 45.7-.7 91.3 15.7 137 26.3 45.7 10.7 91.3 15.7 114.2 18.2L960 430v111H0V411z"/>
    <path fill="#BA72E4" d="M0 455l22.8-4.3c22.9-4.4 68.5-13 114.2-13s91.3 8.6 137 5.8 91.3-17.2 137.2-24.5c45.8-7.3 91.8-7.7 137.6-1.7 45.9 6 91.5 18.4 137.2 15.4 45.7-3 91.3-21.4 137-29.5 45.7-8.2 91.3-6.2 114.2-5.2l22.8 1v142H0v-86z"/>
    <path fill="#B869DA" d="M0 478l22.8-2.7c22.9-2.6 68.5-8 114.2-12.3 45.7-4.3 91.3-7.7 137-4.2s91.3 13.9 137.2 12.5C457 470 503 457 548.8 456.5c45.9-.5 91.5 11.5 137.2 10.2 45.7-1.4 91.3-16 137-19.2 45.7-3.2 91.3 5.2 114.2 9.3L960 461v80H0v-63z"/>
    <path fill="#B65FCF" d="M0 489l22.8-1.3c22.9-1.4 68.5-4 114.2-2.4 45.7 1.7 91.3 7.7 137 12.2 45.7 4.5 91.3 7.5 137.2 6.3 45.8-1.1 91.8-6.5 137.6-7.8 45.9-1.3 91.5 1.3 137.2.3 45.7-1 91.3-5.6 137-6.1s91.3 3.1 114.2 5L960 497v44H0v-52z"/>
  </g>
  <defs>
    <clipPath id="clip0_87_5">
      <path fill="#fff" d="M0 0h960v540H0z"/>
    </clipPath>
    <filter id="filter0_d_87_5" width="1056" height="297.796" x="-48" y="295.204" color-interpolation-filters="sRGB" filterUnits="userSpaceOnUse">
      <feFlood flood-opacity="0" result="BackgroundImageFix"/>
      <feColorMatrix in="SourceAlpha" result="hardAlpha" values="0 0 0 0 0 0 0 0 0 0 0 0 0 0 0 0 0 0 127 0"/>
      <feOffset dy="4"/>
      <feGaussianBlur stdDeviation="24"/>
      <feComposite in2="hardAlpha" operator="out"/>
      <feColorMatrix values="0 0 0 0 0.721569 0 0 0 0 0.411765 0 0 0 0 0.854902 0 0 0 1 0"/>
      <feBlend in2="BackgroundImageFix" result="effect1_dropShadow_87_5"/>
      <feBlend in="SourceGraphic" in2="effect1_dropShadow_87_5" result="shape"/>
    </filter>
  </defs>
</svg>
