<svg id="visual" viewBox="0 0 960 540" width="960" height="540" xmlns="http://www.w3.org/2000/svg" xmlns:xlink="http://www.w3.org/1999/xlink" version="1.1"><rect x="0" y="0" width="960" height="540" fill="#fffff2"></rect><path d="M0 400L22.8 399.3C45.7 398.7 91.3 397.3 137 385C182.7 372.7 228.3 349.3 274 342.8C319.7 336.3 365.3 346.7 411.2 346.7C457 346.7 503 336.3 548.8 340C594.7 343.7 640.3 361.3 686 363C731.7 364.7 777.3 350.3 823 346.5C868.7 342.7 914.3 349.3 937.2 352.7L960 356L960 541L937.2 541C914.3 541 868.7 541 823 541C777.3 541 731.7 541 686 541C640.3 541 594.7 541 548.8 541C503 541 457 541 411.2 541C365.3 541 319.7 541 274 541C228.3 541 182.7 541 137 541C91.3 541 45.7 541 22.8 541L0 541Z" fill="#bd85f8"></path><path d="M0 411L22.8 411.8C45.7 412.7 91.3 414.3 137 412C182.7 409.7 228.3 403.3 274 402.8C319.7 402.3 365.3 407.7 411.2 411.3C457 415 503 417 548.8 409.2C594.7 401.3 640.3 383.7 686 383C731.7 382.3 777.3 398.7 823 409.3C868.7 420 914.3 425 937.2 427.5L960 430L960 541L937.2 541C914.3 541 868.7 541 823 541C777.3 541 731.7 541 686 541C640.3 541 594.7 541 548.8 541C503 541 457 541 411.2 541C365.3 541 319.7 541 274 541C228.3 541 182.7 541 137 541C91.3 541 45.7 541 22.8 541L0 541Z" fill="#bc7cee"></path><path d="M0 455L22.8 450.7C45.7 446.3 91.3 437.7 137 437.7C182.7 437.7 228.3 446.3 274 443.5C319.7 440.7 365.3 426.3 411.2 419C457 411.7 503 411.3 548.8 417.3C594.7 423.3 640.3 435.7 686 432.7C731.7 429.7 777.3 411.3 823 403.2C868.7 395 914.3 397 937.2 398L960 399L960 541L937.2 541C914.3 541 868.7 541 823 541C777.3 541 731.7 541 686 541C640.3 541 594.7 541 548.8 541C503 541 457 541 411.2 541C365.3 541 319.7 541 274 541C228.3 541 182.7 541 137 541C91.3 541 45.7 541 22.8 541L0 541Z" fill="#ba72e4"></path><path d="M0 478L22.8 475.3C45.7 472.7 91.3 467.3 137 463C182.7 458.7 228.3 455.3 274 458.8C319.7 462.3 365.3 472.7 411.2 471.3C457 470 503 457 548.8 456.5C594.7 456 640.3 468 686 466.7C731.7 465.3 777.3 450.7 823 447.5C868.7 444.3 914.3 452.7 937.2 456.8L960 461L960 541L937.2 541C914.3 541 868.7 541 823 541C777.3 541 731.7 541 686 541C640.3 541 594.7 541 548.8 541C503 541 457 541 411.2 541C365.3 541 319.7 541 274 541C228.3 541 182.7 541 137 541C91.3 541 45.7 541 22.8 541L0 541Z" fill="#b869da"></path><path d="M0 489L22.8 487.7C45.7 486.3 91.3 483.7 137 485.3C182.7 487 228.3 493 274 497.5C319.7 502 365.3 505 411.2 503.8C457 502.7 503 497.3 548.8 496C594.7 494.7 640.3 497.3 686 496.3C731.7 495.3 777.3 490.7 823 490.2C868.7 489.7 914.3 493.3 937.2 495.2L960 497L960 541L937.2 541C914.3 541 868.7 541 823 541C777.3 541 731.7 541 686 541C640.3 541 594.7 541 548.8 541C503 541 457 541 411.2 541C365.3 541 319.7 541 274 541C228.3 541 182.7 541 137 541C91.3 541 45.7 541 22.8 541L0 541Z" fill="#b65fcf"></path></svg>